<?xml version="1.0" standalone="no"?><!DOCTYPE svg PUBLIC "-//W3C//DTD SVG 1.1//EN" "http://www.w3.org/Graphics/SVG/1.1/DTD/svg11.dtd"><svg t="1609407455305" class="icon" viewBox="0 0 1024 1024" version="1.1" xmlns="http://www.w3.org/2000/svg" p-id="6626" xmlns:xlink="http://www.w3.org/1999/xlink" width="200" height="200"><defs><style type="text/css"></style></defs><path d="M896.396908 545.442906a16.419076 16.419076 0 0 1-14.695527-9.071313c-1.511885-3.023771-38.900812-74.944161-107.67648-52.023977-51.177322 17.054068-98.272553 22.905064-144.067562 17.885604-56.725941-6.244087-110.095497-29.874856-158.627019-70.106127-25.823003-21.423417-52.583375-30.978532-79.540293-28.37809-48.183789 4.656607-82.231448 45.643821-82.579182 46.067149a16.419076 16.419076 0 0 1-25.414794-20.788424c1.738668-2.11664 43.194567-52.008859 104.834136-57.965688 35.982873-3.477336 70.86207 8.57239 103.654865 35.786329 79.116964 65.661184 167.819282 80.810276 271.338077 46.324169 39.944013-13.319711 78.345903-5.41255 111.032866 22.844589a163.979093 163.979093 0 0 1 36.406201 45.65894 16.419076 16.419076 0 0 1-14.680407 23.766839z" fill="#239B54" p-id="6627"></path><path d="M608.56416 733.491215a330.634224 330.634224 0 1 1 233.797963-96.836262 328.472228 328.472228 0 0 1-233.797963 96.836262z m0-628.445416c-164.205876 0-297.841429 133.590196-297.841429 297.84143s133.590196 297.841429 297.841429 297.841429 297.841429-133.590196 297.841429-297.841429-133.620434-297.841429-297.841429-297.84143z" fill="#0F0F0F" p-id="6628"></path><path d="M933.468338 705.44574a16.419076 16.419076 0 0 0-23.146965 1.799144 450.012697 450.012697 0 0 1-342.351337 157.750126c-248.327181 0-450.345312-202.018131-450.345312-450.345313 0-157.931552 80.49278-301.575786 215.322723-384.230562A16.428147 16.428147 0 0 0 315.757309 2.419017 482.896206 482.896206 0 0 0 84.786573 414.649697a483.183464 483.183464 0 0 0 449.921984 482.034431v94.477721h-111.017747a16.419076 16.419076 0 1 0 0 32.838151h254.919002a16.419076 16.419076 0 0 0 0-32.838151h-111.063104v-93.328688h0.423328a482.820611 482.820611 0 0 0 367.297446-169.240455 16.419076 16.419076 0 0 0-1.799144-23.146966z" fill="#0F0F0F" p-id="6629"></path></svg>