<?xml version="1.0" standalone="no"?><!DOCTYPE svg PUBLIC "-//W3C//DTD SVG 1.1//EN" "http://www.w3.org/Graphics/SVG/1.1/DTD/svg11.dtd"><svg t="1609407960293" class="icon" viewBox="0 0 1024 1024" version="1.1" xmlns="http://www.w3.org/2000/svg" p-id="8142" xmlns:xlink="http://www.w3.org/1999/xlink" width="200" height="200"><defs><style type="text/css"></style></defs><path d="M512 85.333333c235.648 0 426.666667 191.018667 426.666667 426.666667s-191.018667 426.666667-426.666667 426.666667S85.333333 747.648 85.333333 512 276.352 85.333333 512 85.333333z m-32.362667 426.944l0.725334-361.6C294.869333 166.741333 149.333333 322.389333 149.333333 512c0 200.298667 162.368 362.666667 362.666667 362.666667 85.674667 0 164.437333-29.717333 226.496-79.402667L489.344 545.130667a31.936 31.936 0 0 1-9.088-26.368 39.573333 39.573333 0 0 1-0.469333-3.413334l-0.149334-3.072 0.725334-361.6-0.725334 361.6z m99.050667 31.850667l206.058667 206.912a361.173333 361.173333 0 0 0 88.469333-206.336l-294.528-0.576z m-34.346667-393.386667l-0.64 329.322667 329.642667 0.64c-14.741333-172.501333-150.250667-310.549333-321.621333-329.216l-7.381334-0.725333z" fill="#000000" p-id="8143"></path></svg>